<svg id="Layer_1" data-name="Layer 1" xmlns="http://www.w3.org/2000/svg" viewBox="0 0 1604.83 848.06"><defs><style>.cls-1{fill:#1e3c34;}.cls-2{fill:#fffdf8;}</style></defs><rect class="cls-1" width="1604.83" height="848.06"/><path class="cls-2" d="M697.48,304.08V420.83l-55.63,55.62-17.06,17.06L600.27,518l-.33.35-5.46,5.47a94.21,94.21,0,0,1-64.15,25.11H514.76a5,5,0,0,1-5-5V481.41a5,5,0,0,1,5-5h110V304.08a5,5,0,0,1,5-5h62.77A5,5,0,0,1,697.48,304.08Z"/><path class="cls-2" d="M1095,304.87V331.6a8.2,8.2,0,0,1-2.38,5.78l-85.51,86.26h-77a6.41,6.41,0,0,1-6.41-6.41V387.79l70.19-70.22a62.6,62.6,0,0,1,44.58-18.45h50.83A5.75,5.75,0,0,1,1095,304.87Z"/><path class="cls-2" d="M1090.75,430.87v24.47a10,10,0,0,1-2.94,7.1l-67.28,67.28A63,63,0,0,1,976,548.16H925.82a6.43,6.43,0,0,1-6.43-6.43V516.46a10,10,0,0,1,2.9-7.06l85-85.76h76.26A7.23,7.23,0,0,1,1090.75,430.87Z"/><path class="cls-2" d="M923.64,304.15v83.69l-53,53-9.37,9.37a4.92,4.92,0,0,1-8.4-3.48V371.25H768.28V543.11a4.92,4.92,0,0,1-4.67,4.92c-1.64.09-3.29.13-5,.13H702.4a4.92,4.92,0,0,1-4.92-4.92V420.84L804.79,313.53a82.69,82.69,0,0,1,46.63-14.31h67.3A4.93,4.93,0,0,1,923.64,304.15Z"/></svg>